# AST/ASF file generated using VICON BodyLanguage
# -----------------------------------------------
:version 1.10
:name VICON
:units
  mass 1.0
  length 0.45
  angle deg
:documentation
   .ast/.asf automatically generated from VICON data using
   VICON BodyBuilder and BodyLanguage model FoxedUp or BRILLIANT.MOD
:root
   order TX TY TZ RX RY RZ
   axis XYZ
   position 0 0 0  
   orientation 0 0 0 
:bonedata
  begin
     id 1 
     name lhipjoint
     direction 0.702568 -0.596508 0.388042 
     length 2.56661 
     axis 0 0 0  XYZ
  end
  begin
     id 2 
     name lfemur
     direction 0.34202 -0.939693 0  
     length 6.58374  
     axis 0 0 20  XYZ
    dof rx ry rz
    limits (-160.0 20.0)
           (-70.0 70.0)
           (-60.0 70.0)
  end
  begin
     id 3 
     name ltibia
     direction 0.34202 -0.939693 0   
     length 6.62538   
     axis 0 0 20   XYZ
    dof rx
    limits (-10.0 170.0)
  end
  begin
     id 4 
     name lfoot
     direction 0.10455 -0.287249 0.952133   
     length 2.26699   
     axis -90 7.62852e-016 20   XYZ
    dof rx rz
    limits (-45.0 90.0)
           (-70.0 20.0)
  end
  begin
     id 5 
     name ltoes
     direction 1.53572e-011 -4.22322e-011 1   
     length 1.12949   
     axis -90 7.62852e-016 20   XYZ
    dof rx
    limits (-90.0 20.0)
  end
  begin
     id 6 
     name rhipjoint
     direction -0.728055 -0.574632 0.373811   
     length 2.66432  
     axis 0 0 0  XYZ 
  end
  begin
     id 7 
     name rfemur
     direction -0.34202 -0.939693 0   
     length 6.66732   
     axis 0 0 -20   XYZ
    dof rx ry rz
    limits (-160.0 20.0)
           (-70.0 70.0)
           (-70.0 60.0)
  end
  begin
     id 8 
     name rtibia
     direction -0.34202 -0.939693 0   
     length 6.59288   
     axis 0 0 -20   XYZ
    dof rx
    limits (-10.0 170.0)
 end
 begin
     id 9 
     name rfoot
     direction -0.119193 -0.327479 0.93731   
     length 2.38061  
     axis -90 -7.62852e-016 -20   XYZ
    dof rx rz
    limits (-45.0 90.0)
           (-20.0 70.0)
  end
  begin
     id 10 
     name rtoes
     direction -1.53547e-011 -4.21827e-011 1   
     length 1.17899   
     axis -90 -7.62852e-016 -20   XYZ
    dof rx
    limits (-90.0 20.0)
  end
  begin
     id 11 
     name lowerback
     direction -0.000416114 0.999912 -0.0132284   
     length 2.12109   
     axis 0 0 0   XYZ
    dof rx ry rz
    limits (-20.0 45.0)
           (-30.0 30.0)
           (-30.0 30.0)
  end
  begin
     id 12 
     name upperback
     direction -0.00136371 0.99809 0.0617608   
     length 2.10067   
     axis 0 0 0   XYZ
    dof rx ry rz
    limits (-20.0 45.0)
           (-30.0 30.0)
           (-30.0 30.0)
  end
  begin
     id 13 
     name thorax
     direction -3.43026e-005 0.997776 0.0666515   
     length 2.10618   
     axis 0 0 0   XYZ
    dof rx ry rz
    limits (-20.0 45.0)
           (-30.0 30.0)
           (-30.0 30.0)
  end
  begin
     id 14 
     name lowerneck
     direction 0.0398646 0.998418 0.0396592   
     length 1.83817   
     axis 0 0 0   XYZ
    dof rx ry rz
    limits (-20.0 45.0)
           (-30.0 30.0)
           (-30.0 30.0)
  end
  begin
     id 15 
     name upperneck
     direction -0.0367268 0.961527 -0.272244   
     length 1.81975   
     axis 0 0 0   XYZ
    dof rx ry rz
    limits (-20.0 45.0)
           (-30.0 30.0)
           (-30.0 30.0)
  end
  begin
     id 16
     name head
     direction -0.0182665 0.99536 -0.0944669  
     length 1.86026  
     axis 0 0 0   XYZ
    dof rx ry rz
    limits (-20.0 45.0)
           (-30.0 30.0)
           (-30.0 30.0)
  end
  begin
     id 17 
     name lclavicle
     direction 0.924239 0.361045 0.124212  
     length 3.26878  
     axis 0 0 0   XYZ
    dof ry rz
    limits (-20.0 10.0)
           (0.0 20.0)
  end
  begin
     id 18 
     name lhumerus
     direction 1 -4.48968e-011 -2.56583e-027   
     length 4.58538   
     axis 180 -30 -90   XYZ
    dof rx ry rz
    limits (-60.0 90.0)
           (-90.0 90.0)
           (-90.0 90.0)
  end
  begin
     id 19
     name lradius
     direction 1 -4.4898e-011 -5.50375e-027   
     length 2.68935   
     axis 180 -30 -90   XYZ
    dof rx
    limits (-10.0 170.0)
  end
  begin
     id 20
     name lwrist
     direction 1 -4.48939e-011 -1.48955e-026   
     length 1.34468   
     axis 9.0955e-015 90 90   XYZ
    dof ry
    limits (-180.0 0.0)
 end
  begin
     id 21 
     name lhand
     direction 1 -4.48936e-011 -2.97907e-026   
     length 0.585058   
     axis 1.90115e-014 90 90   XYZ
    dof rx rz
    limits (-90.0 90.0)
           (-45.0 45.0)
  end
  begin
     id 22 
     name lfingers
     direction 1 -4.49082e-011 -5.96235e-026   
     length 0.471689   
     axis 3.80223e-014 90 90   XYZ
    dof rx
    limits (0.0 90.0)
  end
  begin
     id 23
     name lthumb
     direction 0.707107 -6.3489e-011 0.707107   
     length 0.677253   
     axis -90 45 -3.84942e-014   XYZ
    dof rx rz
    limits (-45.0 45.0)
           (-45.0 45.0)
  end
  begin
     id 24 
     name rclavicle
     direction -0.923098 0.371783 0.0983239   
     length 3.19656  
     axis 0 0 0   XYZ 
    dof ry rz
    limits (-10.0 20.0)
           (-20.0 0.0)
  end
  begin
     id 25 
     name rhumerus
     direction -1 -4.48976e-011 -2.5492e-027  
     length 4.4745   
     axis 180 30 90   XYZ
    dof rx ry rz
    limits (-90.0 60.0)
           (-90.0 90.0)
           (-90.0 90.0)
  end
  begin
     id 26 
     name rradius
     direction -1 -4.48941e-011 -4.36555e-027   
     length 2.93896   
     axis 180 30 90   XYZ
    dof rx
    limits (-10.0 170.0)
  end
  begin
     id 27 
     name rwrist
     direction -1 -4.49044e-011 -1.49032e-026   
     length 1.46948   
     axis 9.0955e-015 -90 -90   XYZ
    dof ry
    limits (-180.0 0.0)
  end
  begin
     id 28
     name rhand
     direction -1 -4.48826e-011 -2.97749e-026   
     length 0.405092   
     axis 1.90115e-014 -90 -90   XYZ
    dof rx rz
    limits (-90.0 90.0)
           (-45.0 45.0)
  end
  begin
     id 29
     name rfingers
     direction -1 -4.49209e-011 -5.96602e-026   
     length 0.326596   
     axis 3.80223e-014 -90 -90   XYZ
    dof rx
    limits (0.0 90.0)
  end
  begin
     id 30
     name rthumb
     direction -0.707107 -6.34776e-011 0.707107   
     length 0.468928   
     axis -90 -45 3.84942e-014   XYZ
    dof rx rz
    limits (-45.0 45.0)
           (-45.0 45.0)
  end
:hierarchy
  begin
    root lhipjoint rhipjoint lowerback
    lhipjoint lfemur
    lfemur ltibia
    ltibia lfoot
    lfoot ltoes
    rhipjoint rfemur
    rfemur rtibia
    rtibia rfoot
    rfoot rtoes
    lowerback upperback
    upperback thorax
    thorax lowerneck lclavicle rclavicle
    lowerneck upperneck
    upperneck head
    lclavicle lhumerus
    lhumerus lradius
    lradius lwrist
    lwrist lhand lthumb
    lhand lfingers
    rclavicle rhumerus
    rhumerus rradius
    rradius rwrist
    rwrist rhand rthumb
    rhand rfingers
  end

#!OML:ASF H:\Punching\Project 1\Capture day 1\Session 1\female.ASF
:FULLY-SPECIFIED
:DEGREES
1
root 2.1705 15.745 5.79623 7.35342 -7.64771 0.835795
lowerback -4.32472 -1.92286 -1.68338
upperback -7.55316 -2.5777 0.174992
thorax -5.32512 -1.20232 1.13129
lowerneck -7.93163 -8.33456 -2.67697
upperneck 29.054 -10.9952 -2.46126
head 10.6236 -5.70068 -1.68447
rclavicle 1.9661e-014 7.03201e-015
rhumerus -39.1487 -16.9826 -69.8319
rradius 23.6856
rwrist 17.8373
rhand -9.35677 -5.93166
rfingers 7.12502
rthumb 16.603 -35.2415
lclavicle 1.9661e-014 7.03201e-015
lhumerus -49.6315 18.6349 69.2172
lradius 31.8936
lwrist -17.359
lhand -5.62211 15.4418
lfingers 7.12502
lthumb 20.1956 44.412
rfemur -16.6594 8.32253 15.3572
rtibia 28.1333
rfoot -15.7501 -18.5048
rtoes -1.66231
lfemur -9.05687 -12.8056 -18.3676
ltibia 18.3683
lfoot -15.1892 25.4297
ltoes 3.2356
2
root 2.17065 15.7444 5.79839 7.34369 -7.67282 0.844727
lowerback -4.30662 -1.90263 -1.66728
upperback -7.53579 -2.55169 0.154255
thorax -5.31919 -1.19095 1.10108
lowerneck -7.97934 -8.34458 -2.59742
upperneck 28.992 -10.9991 -2.53377
head 10.599 -5.7024 -1.72221
rclavicle -3.81884e-014 -5.34234e-015
rhumerus -39.1674 -17.0159 -69.8289
rradius 23.7068
rwrist 17.8128
rhand -9.37098 -5.97019
rfingers 7.12502
rthumb 16.5893 -35.2811
lclavicle -3.81884e-014 -5.34234e-015
lhumerus -49.5898 18.5776 69.2531
lradius 31.8924
lwrist -17.3341
lhand -5.61367 15.4657
lfingers 7.12502
lthumb 20.2037 44.435
rfemur -16.6502 8.35241 15.3442
rtibia 28.1414
rfoot -15.7415 -18.5059
rtoes -1.6226
lfemur -9.02816 -12.8079 -18.3869
ltibia 18.3613
lfoot -15.2252 25.4525
ltoes 3.2467
3
root 2.17056 15.7444 5.80129 7.34295 -7.66037 0.837966
lowerback -4.31313 -1.91327 -1.64081
upperback -7.54751 -2.56585 0.162587
thorax -5.32825 -1.19907 1.09503
lowerneck -7.87229 -8.33726 -2.62941
upperneck 28.9004 -10.977 -2.55252
head 10.5449 -5.69969 -1.71119
rclavicle -2.66061e-014 -7.25564e-015
rhumerus -39.21 -16.9853 -69.7991
rradius 23.699
rwrist 17.8218
rhand -9.34288 -6.00686
rfingers 7.12502
rthumb 16.6164 -35.3156
lclavicle -2.66061e-014 -7.25564e-015
lhumerus -49.6524 18.6182 69.2191
lradius 31.8879
lwrist -17.3587
lhand -5.6034 15.4677
lfingers 7.12502
lthumb 20.2136 44.436
rfemur -16.6309 8.29627 15.3583
rtibia 28.1417
rfoot -15.7444 -18.4653
rtoes -1.67923
lfemur -9.01224 -12.8144 -18.3838
ltibia 18.3574
lfoot -15.206 25.4511
ltoes 3.19624
4
root 2.16983 15.7445 5.80375 7.34818 -7.67707 0.84045
lowerback -4.31388 -1.91489 -1.63822
upperback -7.54998 -2.56802 0.164655
thorax -5.33041 -1.20023 1.09576
lowerneck -7.89844 -8.33248 -2.65024
upperneck 28.9198 -10.964 -2.56001
head 10.5582 -5.69635 -1.71143
rclavicle -7.97002e-015 -8.3738e-015
rhumerus -39.209 -16.9924 -69.785
rradius 23.674
rwrist 17.8511
rhand -9.37437 -5.91933
rfingers 7.12502
rthumb 16.586 -35.2306
lclavicle -7.97002e-015 -8.3738e-015
lhumerus -49.6605 18.6192 69.2232
lradius 31.8939
lwrist -17.3366
lhand -5.61797 15.4802
lfingers 7.12502
lthumb 20.1996 44.45
rfemur -16.6335 8.34092 15.3573
rtibia 28.1435
rfoot -15.7312 -18.502
rtoes -1.66822
lfemur -9.0045 -12.7866 -18.3871
ltibia 18.3518
lfoot -15.2206 25.4415
ltoes 3.19981
5
root 2.16948 15.7445 5.80638 7.3505 -7.6842 0.842206
lowerback -4.3124 -1.91628 -1.62778
upperback -7.55422 -2.5701 0.164522
thorax -5.33612 -1.20177 1.08998
lowerneck -7.9039 -8.33018 -2.66629
upperneck 28.9262 -10.9542 -2.57242
head 10.5619 -5.69491 -1.71272
rclavicle 2.09904e-014 8.44835e-015
rhumerus -39.2257 -16.999 -69.7649
rradius 23.6599
rwrist 17.872
rhand -9.38904 -5.88344
rfingers 7.12502
rthumb 16.5719 -35.1959
lclavicle 2.09904e-014 8.44835e-015
lhumerus -49.6748 18.621 69.2206
lradius 31.8919
lwrist -17.3271
lhand -5.62121 15.4933
lfingers 7.12502
lthumb 20.1965 44.4634
rfemur -16.6261 8.35131 15.3575
rtibia 28.1439
rfoot -15.7276 -18.5092
rtoes -1.66666
lfemur -8.99205 -12.7722 -18.392
ltibia 18.3457
lfoot -15.2265 25.4361
ltoes 3.18978
6
root 2.16912 15.7445 5.80912 7.35557 -7.68995 0.843932
lowerback -4.31409 -1.91934 -1.61868
upperback -7.5603 -2.57431 0.165593
thorax -5.34185 -1.20427 1.08611
lowerneck -7.92685 -8.32665 -2.69973
upperneck 28.9744 -10.9457 -2.567
head 10.5873 -5.69333 -1.70815
rclavicle -5.78339e-015 -1.41386e-014
rhumerus -39.2394 -17.0159 -69.7387
rradius 23.6262
rwrist 17.8797
rhand -9.45151 -5.77013
rfingers 7.12502
rthumb 16.5118 -35.0876
lclavicle -5.78339e-015 -1.41386e-014
lhumerus -49.6886 18.6274 69.2155
lradius 31.8871
lwrist -17.32
lhand -5.62786 15.5012
lfingers 7.12502
lthumb 20.1901 44.4719
rfemur -16.6212 8.36278 15.3576
rtibia 28.1461
rfoot -15.7272 -18.5202
rtoes -1.66776
lfemur -8.9805 -12.7618 -18.3961
ltibia 18.3359
lfoot -15.2315 25.4326
ltoes 3.19102
